# xmcd
#
# Track frame offsets:
#	150
#	15122
#	27002
#	39600
#	48664
#	57192
#	71625
#	84380
#	94675
#	105662
#	121310
#	131825
#	143612
#	156670
#	167267
#	177967
#	187165
#	199700
#
# Disc length: 2794 seconds
#
# Revision: 1
# Processed by: cddbd v1.4PL0 Copyright (c) Steve Scherf et al.
# Submitted via: audiograbber 1.81.03
#
DISCID=ef0ae812
DTITLE=Ben Steneker - Dutch Country
DYEAR=1900
DGENRE=Country
TTITLE0=Lonely River Rhine
TTITLE1=Judy
TTITLE2=I'm Nobody's Child
TTITLE3=I've Been Known To Cry
TTITLE4=From A Jack To A King
TTITLE5=The Banks Of The Ohio
TTITLE6=Beer Drinking Music
TTITLE7=I Used To Love You
TTITLE8=Bouquet Of Roses
TTITLE9=Wasted Love
TTITLE10=Billy Bayou
TTITLE11=We Had All The Good Things Going
TTITLE12=My Son Calls Another Man Daddy
TTITLE13=Wine Me Up
TTITLE14=Old Oklahoma
TTITLE15=Unwanted Sign Upon Your Heart
TTITLE16=Haunted Hungry Heart
TTITLE17=Come On Home And Sing The Blues To Daddy
EXTD=
EXTT0=
EXTT1=
EXTT2=
EXTT3=
EXTT4=
EXTT5=
EXTT6=
EXTT7=
EXTT8=
EXTT9=
EXTT10=
EXTT11=
EXTT12=
EXTT13=
EXTT14=
EXTT15=
EXTT16=
EXTT17=
PLAYORDER=
